<svg xmlns="http://www.w3.org/2000/svg" viewBox="0 0 40.4 40.4"><defs><style>.cls-1{fill:none;stroke:#333;stroke-miterlimit:10;stroke-width:0.4px;}.cls-2{fill:#e03f3f;}.cls-3{fill:#efad29;}.cls-4{fill:#85e04f;}.cls-5{fill:#333;}.cls-6{fill:#4d4d4d;}</style></defs><title>资源 1</title><g id="图层_2" data-name="图层 2"><g id="图层_1-2" data-name="图层 1"><rect class="cls-1" x="0.2" y="0.2" width="40" height="40" rx="5.8" ry="5.8"/><ellipse class="cls-2" cx="6.21" cy="4.12" rx="1.17" ry="1.18"/><ellipse class="cls-3" cx="11.1" cy="4.12" rx="1.17" ry="1.18"/><ellipse class="cls-4" cx="16.17" cy="4.12" rx="1.17" ry="1.18"/><rect class="cls-5" x="0.2" y="7.27" width="40" height="0.35"/><rect class="cls-5" x="-3.96" y="17.65" width="18.34" height="0.35" transform="translate(23.04 12.61) rotate(90)"/><rect x="0.2" y="26.65" width="40" height="0.35"/><rect class="cls-6" x="6.39" y="11.45" width="14.38" height="0.7" rx="0.35" ry="0.35"/><rect class="cls-6" x="6.39" y="15.08" width="7.99" height="0.7" rx="0.35" ry="0.35"/><rect class="cls-6" x="6.39" y="18.72" width="11.54" height="0.7" rx="0.35" ry="0.35"/><rect class="cls-2" x="6.39" y="28.72" width="20.76" height="0.7" rx="0.35" ry="0.35"/><rect class="cls-3" x="6.39" y="32.35" width="12.38" height="0.7" rx="0.35" ry="0.35"/><rect class="cls-4" x="6.39" y="35.98" width="8.64" height="0.7" rx="0.35" ry="0.35"/><rect class="cls-6" x="6.39" y="22.35" width="17.81" height="0.7" rx="0.35" ry="0.35"/><rect class="cls-1" x="26.11" y="11.45" width="12.21" height="11.08"/><line class="cls-1" x1="26.11" y1="11.45" x2="38.32" y2="22.53"/><line class="cls-1" x1="38.32" y1="11.45" x2="26.11" y2="22.53"/><path class="cls-5" d="M2.2,10.53c-.63.64.58,1.12.86.47s-.94-.81-.95,0a.3.3,0,0,0,.3.3h.17a.3.3,0,0,0,0-.6H2.41l.3.3-.19-.31.08.29,0-.06a.3.3,0,0,0-.42-.42Z"/><path class="cls-5" d="M2.1,13.1c-.52.78.67,1.19,1,.45s-.86-1-.89-.08c0,.38.58.38.6,0l-.16-.07c.21-.32-.3-.62-.52-.3Z"/><path class="cls-5" d="M2.27,15.58c-.72.61.63,1.41.9.44s-1.53-.57-.83.12c.27.27.7-.15.42-.42l-.12.34v-.3q-.15.14,0,.24c.29-.25-.13-.67-.42-.42Z"/><path class="cls-5" d="M2.35,18a.54.54,0,0,0,0,1,.61.61,0,0,0,.82-.61.53.53,0,0,0-.88-.34c-.38.29-.13.7.27.77s.54-.51.16-.58a1.4,1.4,0,0,1-.07.31c.31-.22,0-.73-.3-.52Z"/><path class="cls-5" d="M2.31,21.26c-.32.39-.2,1,.42.9.41-.09.79-.71.34-1a.56.56,0,0,0-.83.64.47.47,0,0,0,.89-.1c.06-.38-.52-.54-.58-.16l.18.14c.24-.3-.18-.72-.42-.42Z"/><path class="cls-5" d="M2.17,23.78c-.12.24-.23.63,0,.83A.71.71,0,0,0,3,24.53c.58-.47-.14-1.2-.66-.63-.26.28.16.71.42.42l-.31-.24.21.21,0-.22c.18-.34-.34-.64-.52-.3Z"/></g></g></svg>